<?xml version="1.0" encoding="utf-8"?>
<!-- Generator: Adobe Illustrator 18.0.0, SVG Export Plug-In . SVG Version: 6.00 Build 0)  -->
<!DOCTYPE svg PUBLIC "-//W3C//DTD SVG 1.1//EN" "http://www.w3.org/Graphics/SVG/1.1/DTD/svg11.dtd">
<svg version="1.1" id="Layer_1" xmlns="http://www.w3.org/2000/svg" xmlns:xlink="http://www.w3.org/1999/xlink" x="0px" y="0px"
	 width="150px" height="150px" viewBox="244.6 15 150 150" enable-background="new 244.6 15 150 150" xml:space="preserve">
<g>
	<path fill="#00111C" d="M360.7,89.2l0.1-1.3h-40l0.3,1.8h-2.3l0.3-1.8h-39.9l0.1,1.3h-3.6v9.4h4.1l0.7,12.9h34.3l2.9-15.7h4.5
		l2.9,15.7h34.3l0.7-12.9h4v-9.4H360.7z M309.8,105.5h-23.6l-0.7-11.6h26.4L309.8,105.5z M353.8,105.5h-23.6l-2.1-11.6h26.4
		L353.8,105.5z"/>
	<polygon fill="#00111C" points="349.6,128.2 320,145.3 290.3,128.2 290.3,115.3 283.5,115.3 283.5,132.1 320,153.2 356.5,132.1 
		356.5,115.3 349.6,115.3 	"/>
	<g>
		<path fill="#00111C" d="M309.3,122.3c7,1.9,14.3,1.9,21.3,0c0.4,1.4,0.8,2.8,1.2,4.3c-7.8,2.1-15.9,2.1-23.6,0
			C308.6,125.2,308.9,123.8,309.3,122.3z"/>
	</g>
	<path fill="#00111C" d="M290.3,70.7L320,53.6l29.7,17.1v12.9h6.8V67.1c0,0-29.2-51-31.7-38.7c-2.5,12.4-41.2,38.5-41.2,38.5v16.7
		h6.8V70.7L290.3,70.7z"/>
	<polygon fill="#00111C" points="331.6,150.8 320,157.6 308.3,150.8 308.3,137.4 320,130.7 331.6,137.4 	"/>
</g>
</svg>
