<?xml version="1.0" encoding="utf-8"?>
<!-- Generator: Adobe Illustrator 18.0.0, SVG Export Plug-In . SVG Version: 6.00 Build 0)  -->
<!DOCTYPE svg PUBLIC "-//W3C//DTD SVG 1.1//EN" "http://www.w3.org/Graphics/SVG/1.1/DTD/svg11.dtd">
<svg version="1.1" id="Layer_1" xmlns="http://www.w3.org/2000/svg" xmlns:xlink="http://www.w3.org/1999/xlink" x="0px" y="0px"
	 viewBox="0 0 200 373.7" enable-background="new 0 0 200 373.7" xml:space="preserve">
<polygon fill="#22618C" points="105.6,183.4 106.1,183.4 118.1,170.7 112.4,170.7 99.8,178 87.2,170.7 81.7,170.7 93.8,183.4 
	94.2,183.4 74.9,330.4 99.9,355.4 124.9,330.4 "/>
<path fill="#22618C" d="M151.1,85l0.1-1.7h-50.6l0.4,2.3h-2.9l0.4-2.3H48.1l0.1,1.7h-4.5v11.9h5.2l0.9,16.3h43.3l3.7-19.9h5.7
	l3.7,19.9h43.3l0.9-16.3h5.1V85H151.1z M86.8,105.6H57l-0.9-14.7h33.4L86.8,105.6z M142.4,105.6h-29.8l-2.7-14.7h33.4L142.4,105.6z"
	/>
<polygon fill="#22618C" points="137.1,134.3 99.7,155.9 62.2,134.3 62.2,118 53.6,118 53.6,139.2 99.7,165.9 145.8,139.2 145.8,118 
	137.1,118 "/>
<g>
	<path fill="#22618C" d="M86.2,126.8c8.8,2.4,18.1,2.4,26.9,0c0.5,1.8,1,3.6,1.5,5.4c-9.8,2.7-20.1,2.7-29.8,0
		C85.3,130.5,85.7,128.7,86.2,126.8z"/>
</g>
<path fill="#22618C" d="M62.2,61.6L99.7,40l37.5,21.6v16.3h8.6V57c0,0-36.9-64.5-40.1-48.9c-3.2,15.7-52.1,48.7-52.1,48.7v21.1h8.6
	L62.2,61.6L62.2,61.6z"/>
<polygon fill="#22618C" points="114.4,162.9 99.7,171.4 84.9,162.9 84.9,145.9 99.7,137.4 114.4,145.9 "/>
</svg>
