<svg version="1.1" id="Layer_1" xmlns="http://www.w3.org/2000/svg" xmlns:xlink="http://www.w3.org/1999/xlink" x="0px" y="0px" width="70px" height="70px" viewBox="0 0 70 70" enable-background="new 0 0 70 70" xml:space="preserve">
	<polygon fill="#00111C" points="11,49.1 11,21.5 35,7.6 59,21.5 59,49.1 35,63.1"/>
	<polygon fill="#FFFFFF" points="34.9,18.9 47.7,26.2 34.9,33.6 22.2,26.2"/>
	<path fill="#FFFFFF" d="M35,57.2l-18.7-11v-22l18.7-11l18.7,11v22L35,57.2z M18.2,45L35,54.9L51.8,45V25.3L35,15.4l-16.8,9.9V45z"/>
	<path fill="#3084b2" d="M36.4,36v14.2l12.4-7.1V28.9L36.4,36z M46.3,36l-4.9,2.9v1.7l2.5-1.4v2.1l-2.5,1.4v1.9l-2.5,1.4v-8.5l7.4-4.3V36z"/>
	<path fill="#55c2ff" d="M21.1,28.9v14.2l12.4,7.1V36L21.1,28.9z M31,40.3l-5-2.9v2.8l5,2.9V46l-7.4-4.3v-8.5l7.4,4.3V40.3z"/>
</svg>