<?xml version="1.0" encoding="utf-8"?>
<!-- Generator: Adobe Illustrator 18.0.0, SVG Export Plug-In . SVG Version: 6.00 Build 0)  -->
<!DOCTYPE svg PUBLIC "-//W3C//DTD SVG 1.1//EN" "http://www.w3.org/Graphics/SVG/1.1/DTD/svg11.dtd">
<svg version="1.1" id="Layer_1" xmlns="http://www.w3.org/2000/svg" xmlns:xlink="http://www.w3.org/1999/xlink" x="0px" y="0px"
	 viewBox="0 0 32 32" enable-background="new 0 0 32 32" xml:space="preserve">
<g>
	<g>
		<g>
			<g>
				<polygon fill="#cccccc" points="16,4.2 25.2,9.5 16,14.8 6.7,9.5 				"/>
				<path fill="#cccccc" d="M16,32L2.4,24V8L16,0l13.6,8v16L16,32z M3.8,23.2L16,30.3l12.2-7.2V8.8L16,1.7L3.8,8.8V23.2z"/>
			</g>
			<path fill="#cccccc" d="M17,16.6v10.3l9-5.2V11.4L17,16.6z M24.2,16.6l-3.6,2.1v1.2l1.8-1v1.5l-1.8,1v1.4l-1.8,1v-6.2l5.4-3.1
				V16.6z"/>
			<path fill="#cccccc" d="M5.9,11.5v10.3l9,5.2V16.6L5.9,11.5z M13.1,19.7l-3.6-2.1v2.1l3.6,2.1v2.1l-5.4-3.1v-6.2l5.4,3.1V19.7z"
				/>
		</g>
	</g>
</g>
</svg>
