<?xml version="1.0" encoding="utf-8"?>
<!-- Generator: Adobe Illustrator 16.0.0, SVG Export Plug-In . SVG Version: 6.00 Build 0)  -->
<!DOCTYPE svg PUBLIC "-//W3C//DTD SVG 1.1//EN" "http://www.w3.org/Graphics/SVG/1.1/DTD/svg11.dtd">
<svg version="1.1" id="Layer_1" xmlns="http://www.w3.org/2000/svg" xmlns:xlink="http://www.w3.org/1999/xlink" x="0px" y="0px"
	 width="93.6px" height="87.2px" viewBox="0 0 93.6 87.2" style="enable-background:new 0 0 93.6 87.2;" xml:space="preserve">
<style type="text/css">
<![CDATA[
	.st0{fill:#3084b2;}
]]>
</style>
<g>
	<path class="st0" d="M74,24.5H25.7c-0.4,0-0.8,0.3-0.8,0.8V28h-2.7c-0.4,0-0.8,0.3-0.8,0.8v2.7h-2.7c-0.4,0-0.8,0.3-0.8,0.8v27.6
		c0,0.4,0.3,0.8,0.8,0.8h48.3c0.4,0,0.8-0.3,0.8-0.8v-2.7h2.7c0.4,0,0.8-0.3,0.8-0.8v-2.7H74c0.4,0,0.8-0.3,0.8-0.8V25.3
		C74.8,24.9,74.4,24.5,74,24.5z M66.3,59H19.6v-26h1.9v23.4c0,0.4,0.3,0.8,0.8,0.8h44V59z M69.8,55.5h-2.7H23V32.2v-2.7H25v23.4
		c0,0.4,0.3,0.8,0.8,0.8h44V55.5z M73.2,52.1h-2.7h-44V28.7V26h46.7V52.1z"/>
	<path class="st0" d="M29.2,50.2H43c0.4,0,0.8-0.3,0.8-0.8c0-0.4-0.3-0.8-0.8-0.8h-9.6c-0.3-1.7-1.7-3.1-3.4-3.4V32.9
		c1.7-0.3,3.1-1.7,3.4-3.4H43c0.4,0,0.8-0.3,0.8-0.8S43.4,28,43,28H29.2c-0.4,0-0.8,0.3-0.8,0.8v20.7C28.4,49.8,28.8,50.2,29.2,50.2
		z M31.7,48.6h-1.8v-1.8C30.8,47.1,31.5,47.8,31.7,48.6z M29.9,29.5h1.8c-0.3,0.9-0.9,1.5-1.8,1.8V29.5z"/>
	<path class="st0" d="M66.4,48.6h-9.6c-0.4,0-0.8,0.3-0.8,0.8c0,0.4,0.3,0.8,0.8,0.8h13.8c0.4,0,0.8-0.3,0.8-0.8V28.7
		c0-0.4-0.3-0.8-0.8-0.8H56.8c-0.4,0-0.8,0.3-0.8,0.8s0.3,0.8,0.8,0.8h9.6c0.3,1.7,1.7,3.1,3.4,3.4v12.4
		C68.1,45.6,66.7,46.9,66.4,48.6z M69.8,48.6H68c0.3-0.9,0.9-1.5,1.8-1.8V48.6z M68,29.5h1.8v1.8C68.9,31,68.2,30.4,68,29.5z"/>
	<path class="st0" d="M47.2,42.5c0-0.4-0.3-0.8-0.8-0.8c-0.4,0-0.8,0.3-0.8,0.8c0,2.1,1.5,3.8,3.4,4.1v2.8c0,0.4,0.3,0.8,0.8,0.8
		s0.8-0.3,0.8-0.8v-2.8c2-0.4,3.4-2.1,3.4-4.1c0-2.1-1.5-3.8-3.4-4.1v-5.3c1.1,0.3,1.9,1.3,1.9,2.6c0,0.4,0.3,0.8,0.8,0.8
		s0.8-0.3,0.8-0.8c0-2.1-1.5-3.8-3.4-4.1v-2.8c0-0.4-0.3-0.8-0.8-0.8s-0.8,0.3-0.8,0.8v2.8c-2,0.4-3.4,2.1-3.4,4.1
		c0,2.1,1.5,3.8,3.4,4.1v5.3C48,44.7,47.2,43.7,47.2,42.5z M52.5,42.5c0,1.2-0.8,2.2-1.9,2.6V40C51.7,40.3,52.5,41.3,52.5,42.5z
		 M47.2,35.6c0-1.2,0.8-2.2,1.9-2.6v5.1C48,37.8,47.2,36.8,47.2,35.6z"/>
</g>
</svg>
