<?xml version="1.0" encoding="utf-8"?>
<!-- Generator: Adobe Illustrator 16.0.0, SVG Export Plug-In . SVG Version: 6.00 Build 0)  -->
<!DOCTYPE svg PUBLIC "-//W3C//DTD SVG 1.1//EN" "http://www.w3.org/Graphics/SVG/1.1/DTD/svg11.dtd">
<svg version="1.1" id="Layer_1" xmlns="http://www.w3.org/2000/svg" xmlns:xlink="http://www.w3.org/1999/xlink" x="0px" y="0px"
	 width="93.6px" height="87.2px" viewBox="0 0 93.6 87.2" style="enable-background:new 0 0 93.6 87.2;" xml:space="preserve">
<style type="text/css">
<![CDATA[
	.st0{fill:#3084b2;}
]]>
</style>
<g>
	<path class="st0" d="M69,27.1h-3.1V24v-3.6c0-0.1,0-0.2,0-0.2c0-0.1,0-0.1,0-0.2v-4c0-0.5-0.4-0.9-0.9-0.9H32.7c-4.9,0-9,4-9,9
		v40.3c0,4.9,4,9,9,9H69c0.5,0,0.9-0.4,0.9-0.9V28C69.9,27.5,69.5,27.1,69,27.1z M32.7,27.1c-1.4,0-2.6-0.9-3-2.2h34.4v2.2H32.7z
		 M64.1,23.1H29.7c0.4-1.3,1.6-2.2,3-2.2h31.4V23.1z M25.5,64.3v-35c1.5,2,3.7,3.3,6.3,3.5v38.5C28.3,71,25.5,68,25.5,64.3z
		 M68.1,71.5H33.6V32.9h34.5V71.5z M68.1,31.2H32.7c-4,0-7.2-3.2-7.2-7.2c0-4,3.2-7.2,7.2-7.2h31.4V19H32.7c-2.7,0-4.9,2.2-4.9,4.9
		s2.2,4.9,4.9,4.9h35.4V31.2z"/>
	<path class="st0" d="M40.8,53.1h20.2c0.5,0,0.9-0.4,0.9-0.9V40.1c0-0.5-0.4-0.9-0.9-0.9H40.8c-0.5,0-0.9,0.4-0.9,0.9v12.1
		C39.9,52.7,40.3,53.1,40.8,53.1z M41.7,41H60v10.3H41.7V41z"/>
	<path class="st0" d="M40.8,57.1h20.2c0.5,0,0.9-0.4,0.9-0.9c0-0.5-0.4-0.9-0.9-0.9H40.8c-0.5,0-0.9,0.4-0.9,0.9
		C39.9,56.7,40.3,57.1,40.8,57.1z"/>
	<path class="st0" d="M40.8,61.2h20.2c0.5,0,0.9-0.4,0.9-0.9c0-0.5-0.4-0.9-0.9-0.9H40.8c-0.5,0-0.9,0.4-0.9,0.9
		C39.9,60.8,40.3,61.2,40.8,61.2z"/>
	<path class="st0" d="M40.8,65.2h20.2c0.5,0,0.9-0.4,0.9-0.9c0-0.5-0.4-0.9-0.9-0.9H40.8c-0.5,0-0.9,0.4-0.9,0.9
		C39.9,64.8,40.3,65.2,40.8,65.2z"/>
</g>
</svg>
