<?xml version="1.0" encoding="utf-8"?>
<!-- Generator: Adobe Illustrator 16.0.0, SVG Export Plug-In . SVG Version: 6.00 Build 0)  -->
<!DOCTYPE svg PUBLIC "-//W3C//DTD SVG 1.1//EN" "http://www.w3.org/Graphics/SVG/1.1/DTD/svg11.dtd">
<svg version="1.1" id="Layer_1" xmlns="http://www.w3.org/2000/svg" xmlns:xlink="http://www.w3.org/1999/xlink" x="0px" y="0px"
	 width="93.6px" height="87.2px" viewBox="0 0 93.6 87.2" style="enable-background:new 0 0 93.6 87.2;" xml:space="preserve">
<style type="text/css">
<![CDATA[
	.st0{fill:#3084b2;}
]]>
</style>
<g>
	<path class="st0" d="M65.8,25.5c-2.6,0-4.7,2.1-4.7,4.7h1.7c0-1.6,1.3-3,3-3c1.6,0,3,1.3,3,3v22.2h-2.2c-0.4-4.3-4.1-7.7-8.5-7.7
		c-4.4,0-8.1,3.4-8.5,7.7h-6.1c-0.4-4.3-4.1-7.7-8.5-7.7c-4.4,0-8.1,3.4-8.5,7.7h-2.2V30.2c0-1.6,1.3-3,3-3c1.6,0,3,1.3,3,3h1.7
		c0-2.6-2.1-4.7-4.7-4.7c-2.6,0-4.7,2.1-4.7,4.7v23c0,0.5,0.4,0.9,0.9,0.9h3c0.4,4.3,4.1,7.7,8.5,7.7c4.4,0,8.1-3.4,8.5-7.7h6.1
		c0.4,4.3,4.1,7.7,8.5,7.7c4.4,0,8.1-3.4,8.5-7.7h3c0.5,0,0.9-0.4,0.9-0.9v-23C70.5,27.6,68.4,25.5,65.8,25.5z M35.1,60.1
		c-3.8,0-6.8-3.1-6.8-6.8s3.1-6.8,6.8-6.8c3.8,0,6.8,3.1,6.8,6.8S38.8,60.1,35.1,60.1z M58.1,60.1c-3.8,0-6.8-3.1-6.8-6.8
		s3.1-6.8,6.8-6.8c3.8,0,6.8,3.1,6.8,6.8S61.9,60.1,58.1,60.1z"/>
</g>
</svg>
