<?xml version="1.0" encoding="utf-8"?>
<!-- Generator: Adobe Illustrator 16.0.0, SVG Export Plug-In . SVG Version: 6.00 Build 0)  -->
<!DOCTYPE svg PUBLIC "-//W3C//DTD SVG 1.1//EN" "http://www.w3.org/Graphics/SVG/1.1/DTD/svg11.dtd">
<svg version="1.1" id="Layer_1" xmlns="http://www.w3.org/2000/svg" xmlns:xlink="http://www.w3.org/1999/xlink" x="0px" y="0px"
	 width="93.6px" height="87.2px" viewBox="0 0 93.6 87.2" style="enable-background:new 0 0 93.6 87.2;" xml:space="preserve">
<style type="text/css">
<![CDATA[
	.st0{fill:#3084b2;}
]]>
</style>
<g>
	<path class="st0" d="M65,17.5c0-3-2.5-5.5-5.5-5.5h-27c-3,0-5.5,2.5-5.5,5.5v54c0,3,2.5,5.5,5.5,5.5h27c3,0,5.5-2.5,5.5-5.5V17.5z
		 M63,71.5c0,1.9-1.6,3.5-3.5,3.5h-27c-1.9,0-3.5-1.6-3.5-3.5v-54c0-1.9,1.6-3.5,3.5-3.5h27c1.9,0,3.5,1.6,3.5,3.5V71.5z"/>
	<path class="st0" d="M46,66c-1.8,0-3.3,1.5-3.3,3.2s1.5,3.2,3.3,3.2c1.8,0,3.2-1.5,3.2-3.2S47.8,66,46,66z M46,70.5
		c-0.7,0-1.2-0.6-1.2-1.2S45.3,68,46,68s1.2,0.6,1.2,1.2S46.7,70.5,46,70.5z"/>
	<path class="st0" d="M59.5,21h-27c-0.6,0-1,0.4-1,1v40.5c0,0.6,0.4,1,1,1h27c0.6,0,1-0.4,1-1V22C60.5,21.5,60,21,59.5,21z
		 M58.5,61.5h-25V23h25V61.5z"/>
	<path class="st0" d="M41.5,18.5h9c0.6,0,1-0.4,1-1s-0.4-1-1-1h-9c-0.6,0-1,0.4-1,1S40.9,18.5,41.5,18.5z"/>
</g>
</svg>
