<?xml version="1.0" encoding="utf-8"?>
<!-- Generator: Adobe Illustrator 16.0.0, SVG Export Plug-In . SVG Version: 6.00 Build 0)  -->
<!DOCTYPE svg PUBLIC "-//W3C//DTD SVG 1.1//EN" "http://www.w3.org/Graphics/SVG/1.1/DTD/svg11.dtd">
<svg version="1.1" id="Layer_1" xmlns="http://www.w3.org/2000/svg" xmlns:xlink="http://www.w3.org/1999/xlink" x="0px" y="0px"
	 width="93.6px" height="87.2px" viewBox="0 0 93.6 87.2" style="enable-background:new 0 0 93.6 87.2;" xml:space="preserve">
<style type="text/css">
<![CDATA[
	.st0{fill:#3084b2;}
]]>
</style>
<g>
	<path class="st0" d="M12.9,64.9h7.4v3.2c0,0.5,0.4,0.9,0.9,0.9h8.3c0.3,0,0.7-0.2,0.8-0.5l3.9-7.8h32.5c2.8,0,5.1-2.3,5.1-5.1
		s-2.3-5.1-5.1-5.1H41.9c-1.8,0-3.2-1.4-3.2-3.2s1.4-3.2,3.2-3.2h8.3c2.8,0,5.1-2.3,5.1-5.1s-2.3-5.1-5.1-5.1H25.3
		c-1.8,0-3.2-1.4-3.2-3.2c0-1.8,1.4-3.2,3.2-3.2h32.5l3.9,7.8c0.2,0.3,0.5,0.5,0.8,0.5h8.3c0.5,0,0.9-0.4,0.9-0.9v-3.2h7.4
		c0.5,0,0.9-0.4,0.9-0.9v-8.3c0-0.5-0.4-0.9-0.9-0.9h-7.4v-3.2c0-0.5-0.4-0.9-0.9-0.9h-8.3c-0.3,0-0.7,0.2-0.8,0.5l-3.9,7.8H25.3
		c-2.8,0-5.1,2.3-5.1,5.1c0,2.8,2.3,5.1,5.1,5.1h24.8c1.8,0,3.2,1.4,3.2,3.2c0,1.8-1.4,3.2-3.2,3.2h-8.3c-2.8,0-5.1,2.3-5.1,5.1
		s2.3,5.1,5.1,5.1h24.8c1.8,0,3.2,1.4,3.2,3.2s-1.4,3.2-3.2,3.2H34.2l-3.9-7.8c-0.2-0.3-0.5-0.5-0.8-0.5h-8.3
		c-0.5,0-0.9,0.4-0.9,0.9v3.2h-7.4c-0.5,0-0.9,0.4-0.9,0.9V64C12,64.5,12.4,64.9,12.9,64.9z M78.2,23.6V30h-6.4v-6.4H78.2z
		 M63.1,19.4h6.8v3.2v8.3v3.2h-6.8l-3.7-7.4L63.1,19.4z M22.1,52.5h6.8l3.7,7.4l-3.7,7.4h-6.8V64v-8.3V52.5z M13.8,56.6h6.4v6.4
		h-6.4V56.6z"/>
</g>
</svg>
